<svg version="1.1" id="Layer_1" xmlns="http://www.w3.org/2000/svg" xmlns:xlink="http://www.w3.org/1999/xlink" x="0px" y="0px"
	 width="100%" viewBox="0 0 2000 1247" enable-background="new 0 0 2000 1247" xml:space="preserve">
<path fill="#164438" opacity="1.000000" stroke="none" 
	d="
M698.000000,1248.000000 
	C465.702911,1248.000000 233.405807,1248.000000 1.054361,1248.000000 
	C1.054361,832.434448 1.054361,416.868835 1.054361,1.000000 
	C233.029297,1.000000 465.058716,1.000000 697.543640,1.468657 
	C697.999146,72.194839 697.999146,142.452362 697.999146,212.653931 
	C721.672729,212.653931 744.731445,212.653931 768.275208,212.653931 
	C768.275208,164.917587 768.275208,117.525330 768.275208,70.387268 
	C1138.467529,70.387268 1508.170898,70.387268 1877.605225,70.387268 
	C1877.605225,440.145050 1877.605225,809.513977 1877.605225,1178.777100 
	C1507.625000,1178.777100 1138.040161,1178.777100 767.966553,1178.777100 
	C767.966553,1131.163696 767.966553,1083.771484 767.966553,1036.300537 
	C744.418152,1036.300537 721.359863,1036.300537 698.000000,1036.300537 
	C698.000000,1107.066895 698.000000,1177.533447 698.000000,1248.000000 
M703.991028,942.490662 
	C692.715698,925.143921 687.733337,905.798096 686.024170,885.453491 
	C685.116394,874.648193 681.056824,865.415100 672.252625,858.943604 
	C666.553284,854.754211 656.373352,851.705994 650.380920,856.391052 
	C643.383850,861.861633 636.492737,867.629944 630.419678,874.082275 
	C621.208679,883.868469 613.015381,894.611267 603.826965,904.420532 
	C600.137512,908.359192 595.020752,910.996399 590.439636,914.055176 
	C584.788635,917.828552 578.837158,918.391479 573.066833,914.468689 
	C567.324768,910.565125 566.383789,904.147949 567.226257,898.250732 
	C568.424927,889.861145 570.559143,881.481689 573.372681,873.477173 
	C576.955139,863.285034 581.277771,853.312927 585.878296,843.526611 
	C596.761292,820.376221 607.621948,797.201416 619.191833,774.391541 
	C631.715820,749.700867 644.855347,725.315857 658.071655,700.985107 
	C666.424561,685.607605 675.331848,670.528198 684.134705,655.399048 
	C691.692505,642.409546 699.400146,629.506226 707.141907,616.625122 
	C715.461426,602.782898 723.519104,588.762512 732.376038,575.269409 
	C744.278381,557.136597 756.089966,538.858948 769.310181,521.698730 
	C784.569519,501.891663 801.118958,483.058716 817.528381,464.167786 
	C823.477478,457.318970 830.530151,451.403442 837.271729,445.273773 
	C849.651855,434.017456 862.947571,424.069427 878.634583,417.775482 
	C889.207764,413.533325 899.836365,410.018738 911.142761,415.542236 
	C912.434998,416.173523 914.193298,415.850586 915.869446,415.980469 
	C916.684509,404.832489 913.492126,395.946014 905.940857,388.303925 
	C898.603455,380.878418 889.537109,376.718872 880.246094,372.607300 
	C861.608582,364.359650 842.455933,363.306213 823.574707,370.243256 
	C802.881592,377.845978 785.332275,391.005615 769.551331,406.173157 
	C758.007324,417.268402 747.295776,429.249573 736.493286,441.091370 
	C724.597839,454.131287 714.535950,468.500397 707.158875,484.602448 
	C703.827148,491.874603 700.529114,499.459564 702.172424,507.610748 
	C703.893433,516.146729 702.583679,524.167847 700.332031,532.269714 
	C696.570557,545.803711 689.148315,557.614441 682.582336,569.806702 
	C672.497009,588.533997 662.070618,607.077454 651.931030,625.775940 
	C644.141907,640.139893 636.525757,654.598328 628.914490,669.057800 
	C615.463501,694.610840 601.783386,720.049316 588.755920,745.817261 
	C579.042847,765.029480 570.008484,784.594543 561.055054,804.177612 
	C555.617798,816.070129 550.750122,828.232483 545.915405,840.388489 
	C540.314270,854.471619 534.992554,868.666687 529.616516,882.838501 
	C521.619446,903.919434 514.053772,925.056702 515.910950,948.262329 
	C516.488281,955.475708 516.753967,956.998718 523.970764,958.951843 
	C533.753784,961.599487 543.606201,964.238403 553.598633,965.780518 
	C560.653992,966.869385 567.890625,966.337830 574.703125,962.795044 
	C590.465820,954.597656 601.568970,941.529236 611.970947,927.769287 
	C619.168579,918.248047 625.802124,908.300354 632.885315,898.263367 
	C633.957214,901.140320 635.178467,903.803406 635.945862,906.591492 
	C638.381042,915.439270 639.905701,924.612732 643.122437,933.155701 
	C651.570007,955.590942 667.034058,972.283142 687.823120,983.918884 
	C713.951477,998.543091 742.697632,1004.355042 772.079529,1005.707581 
	C798.613586,1006.929016 825.383118,1007.479858 851.667969,1001.938721 
	C868.781433,998.331055 885.920898,994.646545 902.745117,989.916443 
	C925.008423,983.657043 945.849976,973.876648 965.790955,962.096436 
	C981.891602,952.585022 996.748413,941.445801 1009.937134,928.304443 
	C1017.874329,920.395813 1024.968994,911.546082 1031.757935,902.599915 
	C1046.888184,882.662170 1059.114380,861.112183 1066.508423,837.008667 
	C1073.195190,815.210388 1076.830322,793.123291 1074.019897,770.261658 
	C1072.200195,755.460327 1067.926270,741.309998 1061.364258,728.062500 
	C1051.933716,709.024048 1037.874268,693.199463 1023.304504,678.031189 
	C1011.869141,666.125977 999.538208,655.060669 987.322205,643.932861 
	C978.997742,636.349976 970.549561,628.808777 961.501709,622.137390 
	C949.419434,613.228638 936.792542,605.043457 924.231079,596.804382 
	C912.855591,589.343201 901.254578,582.226135 889.751953,574.958923 
	C883.242615,570.846436 876.731262,566.737183 869.489502,562.164673 
	C872.099365,561.659851 873.792664,561.165955 875.514771,561.025696 
	C888.462585,559.971191 901.504517,559.618408 914.345886,557.822510 
	C931.088867,555.481018 947.838379,552.714600 964.289734,548.868042 
	C990.272705,542.793091 1016.114014,536.038391 1041.808105,528.832703 
	C1054.840698,525.177795 1067.479248,520.065918 1080.190552,515.329895 
	C1098.232910,508.607788 1115.441528,500.168243 1131.344238,489.234772 
	C1146.464722,478.839233 1160.685913,467.483459 1173.045044,453.714630 
	C1182.060913,443.670441 1189.993164,432.956909 1195.875854,420.979706 
	C1205.427612,401.532043 1209.159302,380.936737 1206.125488,359.168823 
	C1204.607910,348.279663 1202.205566,337.731415 1197.368164,327.923431 
	C1190.057861,313.102142 1180.506104,299.866638 1167.200317,289.776642 
	C1158.668091,283.306427 1150.260986,276.486053 1141.025391,271.162964 
	C1112.784546,254.886230 1081.166382,250.158157 1049.509277,246.095810 
	C1037.295898,244.528549 1024.948364,243.168869 1012.662415,243.173035 
	C983.802246,243.182816 954.900391,241.663239 926.084473,244.931686 
	C911.270081,246.612015 896.374390,247.562897 881.533752,249.028870 
	C869.480835,250.219482 857.410889,251.377518 845.427979,253.102386 
	C826.618286,255.809952 807.805054,258.601776 789.124268,262.064301 
	C770.060730,265.597839 751.058472,269.580170 732.204346,274.096527 
	C707.407104,280.036499 682.504456,285.793365 658.160767,293.295837 
	C635.028564,300.424927 611.940979,308.352051 589.967529,318.406067 
	C567.349365,328.755035 545.407532,341.013062 524.438782,354.420502 
	C501.120911,369.330048 478.664703,385.757416 456.936218,402.920227 
	C443.403992,413.609009 431.586029,426.569183 419.590607,439.077576 
	C403.814819,455.528076 392.687164,474.926971 386.669922,496.947632 
	C384.854279,503.592133 384.369659,510.713776 384.151093,517.644470 
	C383.984436,522.929321 386.243195,528.387024 385.604187,533.542419 
	C383.762268,548.403137 385.368225,562.554688 391.619232,576.162659 
	C397.990417,590.032288 408.128845,600.751221 419.766632,610.331604 
	C434.852051,622.750183 451.300690,632.716858 469.879364,638.912415 
	C482.207031,643.023376 494.924591,645.087830 507.944061,644.973816 
	C512.161560,644.936890 516.042664,643.525391 516.827393,638.952026 
	C517.523865,634.893005 514.615662,632.362061 511.173248,630.630920 
	C510.735718,630.411011 510.307251,630.167480 509.854645,629.984009 
	C495.058960,623.984680 480.102020,618.348206 465.523529,611.861206 
	C456.992371,608.065125 447.991882,604.146301 441.075714,598.129517 
	C423.641266,582.962158 417.001526,563.208130 421.066284,540.253662 
	C424.085541,523.203491 430.692596,507.544281 440.328003,493.188568 
	C449.681152,479.253540 460.431915,466.533997 473.580750,455.979980 
	C483.214203,448.247620 492.421509,439.876678 502.630219,432.993988 
	C517.929260,422.679413 533.494446,412.584351 549.757263,403.917358 
	C571.731812,392.206451 594.107361,381.075989 616.999268,371.310120 
	C637.025391,362.766785 657.863220,356.022919 678.604431,349.291351 
	C695.220825,343.898499 712.157349,339.433716 729.084106,335.070618 
	C749.584229,329.786438 770.192932,324.910248 790.815063,320.117523 
	C802.201294,317.471344 813.677917,315.176971 825.174011,313.049896 
	C839.253601,310.444794 853.379456,308.075745 867.516418,305.798157 
	C882.322632,303.412689 897.135498,301.024689 912.003113,299.078094 
	C922.732544,297.673309 933.545593,296.851837 944.340332,296.014160 
	C962.878296,294.575592 981.414612,292.571594 999.981323,292.166809 
	C1032.291870,291.462280 1064.747070,290.796692 1096.516479,298.175262 
	C1109.346436,301.155060 1122.110474,305.166656 1134.203979,310.344818 
	C1144.868896,314.911346 1153.678101,322.719299 1160.816895,332.221649 
	C1167.815186,341.536804 1172.379761,351.679016 1172.973389,363.381531 
	C1173.525879,374.270660 1170.176636,384.372711 1165.469238,393.899048 
	C1157.494141,410.038208 1146.020264,423.383850 1132.427979,435.268463 
	C1114.388184,451.041931 1094.401489,463.801392 1073.307983,474.747925 
	C1056.649414,483.392944 1039.298096,490.730469 1022.110107,498.321838 
	C993.481567,510.966125 964.041443,521.433716 933.814941,529.529785 
	C912.382690,535.270264 890.675354,539.841431 868.332214,539.967285 
	C850.394592,540.068359 835.752991,547.631592 823.614441,560.086304 
	C816.448914,567.438416 812.818665,580.612061 819.699646,591.115601 
	C824.130249,597.878784 828.626587,604.827881 834.276062,610.519897 
	C850.113953,626.476868 866.345520,642.062134 882.842285,657.340027 
	C896.871887,670.333130 912.046875,682.123779 925.677185,695.503662 
	C938.211548,707.807922 949.969360,721.033752 960.979248,734.729858 
	C977.354248,755.100037 990.546570,777.589661 998.636475,802.545105 
	C1005.607788,824.049622 1008.441223,846.085449 1004.135193,868.804565 
	C1000.178284,889.681885 990.419067,907.398193 976.485291,922.892029 
	C958.058533,943.381592 935.310120,957.902710 910.016785,968.444519 
	C882.942444,979.728638 854.483582,985.265381 825.337158,986.828125 
	C812.463928,987.518311 799.480652,986.546387 786.564575,985.953491 
	C768.114319,985.106567 750.765320,980.324219 734.538635,971.239197 
	C722.110962,964.281189 712.027100,955.077271 703.991028,942.490662 
M1139.009888,799.483276 
	C1136.108032,804.091553 1132.824341,808.511902 1130.432617,813.371216 
	C1128.712158,816.866577 1132.048584,824.242615 1135.477783,826.089417 
	C1139.950317,828.498108 1143.181641,826.330383 1146.338257,823.202087 
	C1162.451172,807.233643 1175.098877,788.562561 1187.977661,770.070251 
	C1192.391846,763.731812 1196.692993,757.314819 1201.045898,750.933716 
	C1201.022827,756.747314 1200.252563,762.042419 1198.890137,767.180542 
	C1192.679932,790.602051 1189.826538,814.554688 1188.188965,838.612732 
	C1187.427734,849.794922 1188.277954,861.141663 1189.101074,872.362244 
	C1190.026245,884.973145 1194.363892,896.047119 1204.745850,904.397827 
	C1215.587524,913.118347 1228.341553,914.428894 1235.236572,902.224304 
	C1239.717041,894.293640 1244.309448,886.645081 1241.287842,876.540649 
	C1239.831055,871.669006 1240.347290,865.830078 1241.310181,860.679626 
	C1244.838501,841.804932 1252.798096,824.595337 1263.692871,808.967834 
	C1274.834595,792.986084 1286.801758,777.570129 1298.662842,762.102234 
	C1310.777222,746.303772 1323.821045,731.318176 1339.086548,718.410950 
	C1352.110107,707.399414 1364.578247,695.634766 1378.284058,685.551575 
	C1394.339111,673.740051 1411.032349,662.639771 1428.254150,652.614929 
	C1445.181274,642.761536 1463.812866,636.938293 1483.510864,634.959045 
	C1491.673462,634.138855 1501.283081,639.849609 1504.024048,647.526672 
	C1509.092773,661.723328 1508.556274,676.115173 1504.759644,690.299377 
	C1498.900391,712.189209 1491.112427,733.359924 1480.034180,753.293152 
	C1466.564697,777.528870 1449.728882,799.138611 1430.480591,818.946167 
	C1425.177368,824.403259 1419.567139,829.588562 1413.827393,834.588196 
	C1406.941528,840.586243 1399.929199,846.465088 1392.677246,852.010742 
	C1382.483032,859.806580 1372.018188,867.248901 1361.668579,874.841492 
	C1340.313232,890.507751 1318.121826,904.882324 1294.558960,916.992371 
	C1282.754272,923.059387 1270.672729,928.660950 1258.426758,933.779846 
	C1238.162231,942.250488 1217.073608,947.490662 1194.969482,948.009277 
	C1182.876221,948.293030 1170.778442,948.522278 1158.696899,949.083801 
	C1154.675415,949.270691 1150.623657,950.140442 1146.723267,951.203064 
	C1143.243042,952.151306 1142.938232,955.104126 1145.900879,957.328430 
	C1146.912964,958.088135 1148.174316,958.647827 1149.407593,958.959473 
	C1158.963989,961.374573 1168.439819,964.344421 1178.139893,965.892151 
	C1188.791260,967.591553 1199.659180,968.745300 1210.425903,968.694214 
	C1222.535522,968.636780 1234.708496,967.490295 1246.722900,965.854614 
	C1258.933350,964.192261 1271.085571,961.784363 1283.082275,958.940063 
	C1303.920288,953.999695 1323.894043,946.423950 1343.245728,937.296448 
	C1370.970459,924.219727 1396.661011,907.779236 1421.708618,890.165344 
	C1442.911987,875.254822 1462.584106,858.554321 1481.409302,840.874512 
	C1491.977661,830.949097 1501.435547,819.834351 1511.302734,809.171204 
	C1525.530029,793.796204 1538.097534,777.216919 1548.594238,759.015869 
	C1562.178589,735.461182 1570.419312,710.526428 1568.824707,683.092285 
	C1568.446777,676.592285 1566.812988,669.806763 1564.155762,663.869019 
	C1557.733521,649.517944 1545.734253,639.930908 1533.378784,630.904907 
	C1515.306763,617.702698 1495.962646,608.286865 1472.674072,612.058350 
	C1462.920044,613.637939 1453.090820,615.225769 1443.607788,617.911438 
	C1420.942139,624.330688 1400.588745,635.504883 1381.206543,648.846375 
	C1360.344971,663.206238 1341.547485,679.986511 1323.420288,697.432495 
	C1307.372681,712.876892 1292.591797,729.653687 1277.527710,746.095093 
	C1272.040771,752.083801 1267.268555,758.739807 1262.317505,765.204163 
	C1256.615845,772.648315 1251.077271,780.217224 1244.839844,788.573120 
	C1245.810669,783.434204 1246.404419,779.284546 1247.391968,775.230774 
	C1252.898682,752.622375 1258.775146,730.105347 1268.044312,708.682678 
	C1272.875122,697.517639 1276.819336,686.172791 1287.797729,678.356018 
	C1312.588013,660.704712 1336.800049,642.214722 1360.821533,623.518982 
	C1378.243164,609.959839 1395.088379,595.649902 1411.987793,581.433533 
	C1423.290649,571.925110 1434.410889,562.182861 1445.302856,552.206726 
	C1460.863770,537.954102 1476.304565,523.561340 1491.479004,508.899689 
	C1500.997681,499.702850 1510.059692,490.020844 1519.098022,480.342957 
	C1529.295288,469.423737 1539.674072,458.626526 1549.177368,447.118469 
	C1560.974487,432.832520 1572.515381,418.262817 1583.102905,403.074066 
	C1590.947266,391.820709 1598.078613,379.830414 1603.735840,367.355835 
	C1610.169189,353.170105 1616.384766,338.585022 1617.146606,322.577789 
	C1617.539673,314.321045 1619.101318,305.771759 1617.585815,297.841919 
	C1613.994751,279.052704 1601.602539,265.776703 1585.004272,257.910522 
	C1564.604492,248.242630 1542.787842,243.596863 1519.788696,246.892166 
	C1507.935303,248.590515 1496.592529,251.636566 1485.797607,256.676758 
	C1458.598511,269.376038 1436.498169,288.584961 1417.945312,311.779694 
	C1405.485352,327.357452 1393.375610,343.357574 1382.674194,360.165131 
	C1368.066650,383.107330 1353.950195,406.479980 1341.436157,430.608398 
	C1324.731812,462.816345 1309.484253,495.794769 1294.156006,528.696167 
	C1283.933960,550.637512 1274.497559,572.951477 1265.022705,595.231812 
	C1258.623901,610.278564 1252.032471,625.309875 1246.843506,640.789307 
	C1238.710693,665.051147 1225.048706,685.993835 1210.150513,706.343689 
	C1199.998779,720.210022 1189.882446,734.104370 1179.549561,747.835144 
	C1172.407837,757.325256 1164.922241,766.556519 1157.592896,775.905457 
	C1151.567749,783.590942 1145.546265,791.279358 1139.009888,799.483276 
z"/>
<path fill="#CBB383" opacity="1.000000" stroke="none" 
	d="
M698.468628,1248.000000 
	C698.000000,1177.533447 698.000000,1107.066895 698.000000,1036.300537 
	C721.359863,1036.300537 744.418152,1036.300537 767.966553,1036.300537 
	C767.966553,1083.771484 767.966553,1131.163696 767.966553,1178.777100 
	C1138.040161,1178.777100 1507.625000,1178.777100 1877.605225,1178.777100 
	C1877.605225,809.513977 1877.605225,440.145050 1877.605225,70.387268 
	C1508.170898,70.387268 1138.467529,70.387268 768.275208,70.387268 
	C768.275208,117.525330 768.275208,164.917587 768.275208,212.653931 
	C744.731445,212.653931 721.672729,212.653931 697.999146,212.653931 
	C697.999146,142.452362 697.999146,72.194839 697.999573,1.468657 
	C1114.020874,1.000000 1530.041870,1.000000 1946.531250,1.459705 
	C1946.999878,417.279602 1947.000000,832.639832 1947.000000,1248.000000 
	C1530.979126,1248.000000 1114.958252,1248.000000 698.468628,1248.000000 
z"/>
<path fill="#164438" opacity="1.000000" stroke="none" 
	d="
M1947.459717,1248.000000 
	C1947.000000,832.639832 1946.999878,417.279602 1947.000000,1.459705 
	C1964.994385,1.000000 1982.988892,1.000000 2000.951416,1.000000 
	C2000.951416,416.666656 2000.951416,832.333313 2000.951416,1248.000000 
	C1983.241821,1248.000000 1965.580566,1248.000000 1947.459717,1248.000000 
z"/>
<path fill="#CBB383" opacity="1.000000" stroke="none" 
	d="
M704.241882,942.760986 
	C712.027100,955.077271 722.110962,964.281189 734.538635,971.239197 
	C750.765320,980.324219 768.114319,985.106567 786.564575,985.953491 
	C799.480652,986.546387 812.463928,987.518311 825.337158,986.828125 
	C854.483582,985.265381 882.942444,979.728638 910.016785,968.444519 
	C935.310120,957.902710 958.058533,943.381592 976.485291,922.892029 
	C990.419067,907.398193 1000.178284,889.681885 1004.135193,868.804565 
	C1008.441223,846.085449 1005.607788,824.049622 998.636475,802.545105 
	C990.546570,777.589661 977.354248,755.100037 960.979248,734.729858 
	C949.969360,721.033752 938.211548,707.807922 925.677185,695.503662 
	C912.046875,682.123779 896.871887,670.333130 882.842285,657.340027 
	C866.345520,642.062134 850.113953,626.476868 834.276062,610.519897 
	C828.626587,604.827881 824.130249,597.878784 819.699646,591.115601 
	C812.818665,580.612061 816.448914,567.438416 823.614441,560.086304 
	C835.752991,547.631592 850.394592,540.068359 868.332214,539.967285 
	C890.675354,539.841431 912.382690,535.270264 933.814941,529.529785 
	C964.041443,521.433716 993.481567,510.966125 1022.110107,498.321838 
	C1039.298096,490.730469 1056.649414,483.392944 1073.307983,474.747925 
	C1094.401489,463.801392 1114.388184,451.041931 1132.427979,435.268463 
	C1146.020264,423.383850 1157.494141,410.038208 1165.469238,393.899048 
	C1170.176636,384.372711 1173.525879,374.270660 1172.973389,363.381531 
	C1172.379761,351.679016 1167.815186,341.536804 1160.816895,332.221649 
	C1153.678101,322.719299 1144.868896,314.911346 1134.203979,310.344818 
	C1122.110474,305.166656 1109.346436,301.155060 1096.516479,298.175262 
	C1064.747070,290.796692 1032.291870,291.462280 999.981323,292.166809 
	C981.414612,292.571594 962.878296,294.575592 944.340332,296.014160 
	C933.545593,296.851837 922.732544,297.673309 912.003113,299.078094 
	C897.135498,301.024689 882.322632,303.412689 867.516418,305.798157 
	C853.379456,308.075745 839.253601,310.444794 825.174011,313.049896 
	C813.677917,315.176971 802.201294,317.471344 790.815063,320.117523 
	C770.192932,324.910248 749.584229,329.786438 729.084106,335.070618 
	C712.157349,339.433716 695.220825,343.898499 678.604431,349.291351 
	C657.863220,356.022919 637.025391,362.766785 616.999268,371.310120 
	C594.107361,381.075989 571.731812,392.206451 549.757263,403.917358 
	C533.494446,412.584351 517.929260,422.679413 502.630219,432.993988 
	C492.421509,439.876678 483.214203,448.247620 473.580750,455.979980 
	C460.431915,466.533997 449.681152,479.253540 440.328003,493.188568 
	C430.692596,507.544281 424.085541,523.203491 421.066284,540.253662 
	C417.001526,563.208130 423.641266,582.962158 441.075714,598.129517 
	C447.991882,604.146301 456.992371,608.065125 465.523529,611.861206 
	C480.102020,618.348206 495.058960,623.984680 509.854645,629.984009 
	C510.307251,630.167480 510.735718,630.411011 511.173248,630.630920 
	C514.615662,632.362061 517.523865,634.893005 516.827393,638.952026 
	C516.042664,643.525391 512.161560,644.936890 507.944061,644.973816 
	C494.924591,645.087830 482.207031,643.023376 469.879364,638.912415 
	C451.300690,632.716858 434.852051,622.750183 419.766632,610.331604 
	C408.128845,600.751221 397.990417,590.032288 391.619232,576.162659 
	C385.368225,562.554688 383.762268,548.403137 385.604187,533.542419 
	C386.243195,528.387024 383.984436,522.929321 384.151093,517.644470 
	C384.369659,510.713776 384.854279,503.592133 386.669922,496.947632 
	C392.687164,474.926971 403.814819,455.528076 419.590607,439.077576 
	C431.586029,426.569183 443.403992,413.609009 456.936218,402.920227 
	C478.664703,385.757416 501.120911,369.330048 524.438782,354.420502 
	C545.407532,341.013062 567.349365,328.755035 589.967529,318.406067 
	C611.940979,308.352051 635.028564,300.424927 658.160767,293.295837 
	C682.504456,285.793365 707.407104,280.036499 732.204346,274.096527 
	C751.058472,269.580170 770.060730,265.597839 789.124268,262.064301 
	C807.805054,258.601776 826.618286,255.809952 845.427979,253.102386 
	C857.410889,251.377518 869.480835,250.219482 881.533752,249.028870 
	C896.374390,247.562897 911.270081,246.612015 926.084473,244.931686 
	C954.900391,241.663239 983.802246,243.182816 1012.662415,243.173035 
	C1024.948364,243.168869 1037.295898,244.528549 1049.509277,246.095810 
	C1081.166382,250.158157 1112.784546,254.886230 1141.025391,271.162964 
	C1150.260986,276.486053 1158.668091,283.306427 1167.200317,289.776642 
	C1180.506104,299.866638 1190.057861,313.102142 1197.368164,327.923431 
	C1202.205566,337.731415 1204.607910,348.279663 1206.125488,359.168823 
	C1209.159302,380.936737 1205.427612,401.532043 1195.875854,420.979706 
	C1189.993164,432.956909 1182.060913,443.670441 1173.045044,453.714630 
	C1160.685913,467.483459 1146.464722,478.839233 1131.344238,489.234772 
	C1115.441528,500.168243 1098.232910,508.607788 1080.190552,515.329895 
	C1067.479248,520.065918 1054.840698,525.177795 1041.808105,528.832703 
	C1016.114014,536.038391 990.272705,542.793091 964.289734,548.868042 
	C947.838379,552.714600 931.088867,555.481018 914.345886,557.822510 
	C901.504517,559.618408 888.462585,559.971191 875.514771,561.025696 
	C873.792664,561.165955 872.099365,561.659851 869.489502,562.164673 
	C876.731262,566.737183 883.242615,570.846436 889.751953,574.958923 
	C901.254578,582.226135 912.855591,589.343201 924.231079,596.804382 
	C936.792542,605.043457 949.419434,613.228638 961.501709,622.137390 
	C970.549561,628.808777 978.997742,636.349976 987.322205,643.932861 
	C999.538208,655.060669 1011.869141,666.125977 1023.304504,678.031189 
	C1037.874268,693.199463 1051.933716,709.024048 1061.364258,728.062500 
	C1067.926270,741.309998 1072.200195,755.460327 1074.019897,770.261658 
	C1076.830322,793.123291 1073.195190,815.210388 1066.508423,837.008667 
	C1059.114380,861.112183 1046.888184,882.662170 1031.757935,902.599915 
	C1024.968994,911.546082 1017.874329,920.395813 1009.937134,928.304443 
	C996.748413,941.445801 981.891602,952.585022 965.790955,962.096436 
	C945.849976,973.876648 925.008423,983.657043 902.745117,989.916443 
	C885.920898,994.646545 868.781433,998.331055 851.667969,1001.938721 
	C825.383118,1007.479858 798.613586,1006.929016 772.079529,1005.707581 
	C742.697632,1004.355042 713.951477,998.543091 687.823120,983.918884 
	C667.034058,972.283142 651.570007,955.590942 643.122437,933.155701 
	C639.905701,924.612732 638.381042,915.439270 635.945862,906.591492 
	C635.178467,903.803406 633.957214,901.140320 632.885315,898.263367 
	C625.802124,908.300354 619.168579,918.248047 611.970947,927.769287 
	C601.568970,941.529236 590.465820,954.597656 574.703125,962.795044 
	C567.890625,966.337830 560.653992,966.869385 553.598633,965.780518 
	C543.606201,964.238403 533.753784,961.599487 523.970764,958.951843 
	C516.753967,956.998718 516.488281,955.475708 515.910950,948.262329 
	C514.053772,925.056702 521.619446,903.919434 529.616516,882.838501 
	C534.992554,868.666687 540.314270,854.471619 545.915405,840.388489 
	C550.750122,828.232483 555.617798,816.070129 561.055054,804.177612 
	C570.008484,784.594543 579.042847,765.029480 588.755920,745.817261 
	C601.783386,720.049316 615.463501,694.610840 628.914490,669.057800 
	C636.525757,654.598328 644.141907,640.139893 651.931030,625.775940 
	C662.070618,607.077454 672.497009,588.533997 682.582336,569.806702 
	C689.148315,557.614441 696.570557,545.803711 700.332031,532.269714 
	C702.583679,524.167847 703.893433,516.146729 702.172424,507.610748 
	C700.529114,499.459564 703.827148,491.874603 707.158875,484.602448 
	C714.535950,468.500397 724.597839,454.131287 736.493286,441.091370 
	C747.295776,429.249573 758.007324,417.268402 769.551331,406.173157 
	C785.332275,391.005615 802.881592,377.845978 823.574707,370.243256 
	C842.455933,363.306213 861.608582,364.359650 880.246094,372.607300 
	C889.537109,376.718872 898.603455,380.878418 905.940857,388.303925 
	C913.492126,395.946014 916.684509,404.832489 915.869446,415.980469 
	C914.193298,415.850586 912.434998,416.173523 911.142761,415.542236 
	C899.836365,410.018738 889.207764,413.533325 878.634583,417.775482 
	C862.947571,424.069427 849.651855,434.017456 837.271729,445.273773 
	C830.530151,451.403442 823.477478,457.318970 817.528381,464.167786 
	C801.118958,483.058716 784.569519,501.891663 769.310181,521.698730 
	C756.089966,538.858948 744.278381,557.136597 732.376038,575.269409 
	C723.519104,588.762512 715.461426,602.782898 707.141907,616.625122 
	C699.400146,629.506226 691.692505,642.409546 684.134705,655.399048 
	C675.331848,670.528198 666.424561,685.607605 658.071655,700.985107 
	C644.855347,725.315857 631.715820,749.700867 619.191833,774.391541 
	C607.621948,797.201416 596.761292,820.376221 585.878296,843.526611 
	C581.277771,853.312927 576.955139,863.285034 573.372681,873.477173 
	C570.559143,881.481689 568.424927,889.861145 567.226257,898.250732 
	C566.383789,904.147949 567.324768,910.565125 573.066833,914.468689 
	C578.837158,918.391479 584.788635,917.828552 590.439636,914.055176 
	C595.020752,910.996399 600.137512,908.359192 603.826965,904.420532 
	C613.015381,894.611267 621.208679,883.868469 630.419678,874.082275 
	C636.492737,867.629944 643.383850,861.861633 650.380920,856.391052 
	C656.373352,851.705994 666.553284,854.754211 672.252625,858.943604 
	C681.056824,865.415100 685.116394,874.648193 686.024170,885.453491 
	C687.733337,905.798096 692.715698,925.143921 704.241882,942.760986 
z"/>
<path fill="#CBB383" opacity="1.000000" stroke="none" 
	d="
M1139.266602,799.224854 
	C1145.546265,791.279358 1151.567749,783.590942 1157.592896,775.905457 
	C1164.922241,766.556519 1172.407837,757.325256 1179.549561,747.835144 
	C1189.882446,734.104370 1199.998779,720.210022 1210.150513,706.343689 
	C1225.048706,685.993835 1238.710693,665.051147 1246.843506,640.789307 
	C1252.032471,625.309875 1258.623901,610.278564 1265.022705,595.231812 
	C1274.497559,572.951477 1283.933960,550.637512 1294.156006,528.696167 
	C1309.484253,495.794769 1324.731812,462.816345 1341.436157,430.608398 
	C1353.950195,406.479980 1368.066650,383.107330 1382.674194,360.165131 
	C1393.375610,343.357574 1405.485352,327.357452 1417.945312,311.779694 
	C1436.498169,288.584961 1458.598511,269.376038 1485.797607,256.676758 
	C1496.592529,251.636566 1507.935303,248.590515 1519.788696,246.892166 
	C1542.787842,243.596863 1564.604492,248.242630 1585.004272,257.910522 
	C1601.602539,265.776703 1613.994751,279.052704 1617.585815,297.841919 
	C1619.101318,305.771759 1617.539673,314.321045 1617.146606,322.577789 
	C1616.384766,338.585022 1610.169189,353.170105 1603.735840,367.355835 
	C1598.078613,379.830414 1590.947266,391.820709 1583.102905,403.074066 
	C1572.515381,418.262817 1560.974487,432.832520 1549.177368,447.118469 
	C1539.674072,458.626526 1529.295288,469.423737 1519.098022,480.342957 
	C1510.059692,490.020844 1500.997681,499.702850 1491.479004,508.899689 
	C1476.304565,523.561340 1460.863770,537.954102 1445.302856,552.206726 
	C1434.410889,562.182861 1423.290649,571.925110 1411.987793,581.433533 
	C1395.088379,595.649902 1378.243164,609.959839 1360.821533,623.518982 
	C1336.800049,642.214722 1312.588013,660.704712 1287.797729,678.356018 
	C1276.819336,686.172791 1272.875122,697.517639 1268.044312,708.682678 
	C1258.775146,730.105347 1252.898682,752.622375 1247.391968,775.230774 
	C1246.404419,779.284546 1245.810669,783.434204 1244.839844,788.573120 
	C1251.077271,780.217224 1256.615845,772.648315 1262.317505,765.204163 
	C1267.268555,758.739807 1272.040771,752.083801 1277.527710,746.095093 
	C1292.591797,729.653687 1307.372681,712.876892 1323.420288,697.432495 
	C1341.547485,679.986511 1360.344971,663.206238 1381.206543,648.846375 
	C1400.588745,635.504883 1420.942139,624.330688 1443.607788,617.911438 
	C1453.090820,615.225769 1462.920044,613.637939 1472.674072,612.058350 
	C1495.962646,608.286865 1515.306763,617.702698 1533.378784,630.904907 
	C1545.734253,639.930908 1557.733521,649.517944 1564.155762,663.869019 
	C1566.812988,669.806763 1568.446777,676.592285 1568.824707,683.092285 
	C1570.419312,710.526428 1562.178589,735.461182 1548.594238,759.015869 
	C1538.097534,777.216919 1525.530029,793.796204 1511.302734,809.171204 
	C1501.435547,819.834351 1491.977661,830.949097 1481.409302,840.874512 
	C1462.584106,858.554321 1442.911987,875.254822 1421.708618,890.165344 
	C1396.661011,907.779236 1370.970459,924.219727 1343.245728,937.296448 
	C1323.894043,946.423950 1303.920288,953.999695 1283.082275,958.940063 
	C1271.085571,961.784363 1258.933350,964.192261 1246.722900,965.854614 
	C1234.708496,967.490295 1222.535522,968.636780 1210.425903,968.694214 
	C1199.659180,968.745300 1188.791260,967.591553 1178.139893,965.892151 
	C1168.439819,964.344421 1158.963989,961.374573 1149.407593,958.959473 
	C1148.174316,958.647827 1146.912964,958.088135 1145.900879,957.328430 
	C1142.938232,955.104126 1143.243042,952.151306 1146.723267,951.203064 
	C1150.623657,950.140442 1154.675415,949.270691 1158.696899,949.083801 
	C1170.778442,948.522278 1182.876221,948.293030 1194.969482,948.009277 
	C1217.073608,947.490662 1238.162231,942.250488 1258.426758,933.779846 
	C1270.672729,928.660950 1282.754272,923.059387 1294.558960,916.992371 
	C1318.121826,904.882324 1340.313232,890.507751 1361.668579,874.841492 
	C1372.018188,867.248901 1382.483032,859.806580 1392.677246,852.010742 
	C1399.929199,846.465088 1406.941528,840.586243 1413.827393,834.588196 
	C1419.567139,829.588562 1425.177368,824.403259 1430.480591,818.946167 
	C1449.728882,799.138611 1466.564697,777.528870 1480.034180,753.293152 
	C1491.112427,733.359924 1498.900391,712.189209 1504.759644,690.299377 
	C1508.556274,676.115173 1509.092773,661.723328 1504.024048,647.526672 
	C1501.283081,639.849609 1491.673462,634.138855 1483.510864,634.959045 
	C1463.812866,636.938293 1445.181274,642.761536 1428.254150,652.614929 
	C1411.032349,662.639771 1394.339111,673.740051 1378.284058,685.551575 
	C1364.578247,695.634766 1352.110107,707.399414 1339.086548,718.410950 
	C1323.821045,731.318176 1310.777222,746.303772 1298.662842,762.102234 
	C1286.801758,777.570129 1274.834595,792.986084 1263.692871,808.967834 
	C1252.798096,824.595337 1244.838501,841.804932 1241.310181,860.679626 
	C1240.347290,865.830078 1239.831055,871.669006 1241.287842,876.540649 
	C1244.309448,886.645081 1239.717041,894.293640 1235.236572,902.224304 
	C1228.341553,914.428894 1215.587524,913.118347 1204.745850,904.397827 
	C1194.363892,896.047119 1190.026245,884.973145 1189.101074,872.362244 
	C1188.277954,861.141663 1187.427734,849.794922 1188.188965,838.612732 
	C1189.826538,814.554688 1192.679932,790.602051 1198.890137,767.180542 
	C1200.252563,762.042419 1201.022827,756.747314 1201.045898,750.933716 
	C1196.692993,757.314819 1192.391846,763.731812 1187.977661,770.070251 
	C1175.098877,788.562561 1162.451172,807.233643 1146.338257,823.202087 
	C1143.181641,826.330383 1139.950317,828.498108 1135.477783,826.089417 
	C1132.048584,824.242615 1128.712158,816.866577 1130.432617,813.371216 
	C1132.824341,808.511902 1136.108032,804.091553 1139.266602,799.224854 
M1296.190918,634.273499 
	C1299.623901,631.837219 1303.083252,629.437134 1306.485352,626.958313 
	C1321.380493,616.105347 1336.480469,605.516846 1351.075195,594.273010 
	C1363.132202,584.984375 1374.925537,575.289612 1386.232788,565.105469 
	C1408.300903,545.229431 1430.062500,525.007874 1451.705933,504.668701 
	C1459.401001,497.437408 1466.453247,489.513397 1473.673828,481.788696 
	C1480.885376,474.073822 1488.217285,466.445312 1495.005859,458.366669 
	C1509.074097,441.625214 1522.962036,424.726959 1536.653931,407.676117 
	C1551.032349,389.770233 1563.351196,370.517090 1573.054688,349.653198 
	C1580.687134,333.242279 1586.418335,316.364960 1584.976562,297.886810 
	C1583.900635,284.095032 1575.298340,273.893341 1559.438232,277.738525 
	C1549.569214,280.131256 1540.430664,284.132355 1532.695557,290.134888 
	C1516.055542,303.047485 1499.886597,316.618317 1484.147217,330.619415 
	C1476.075562,337.799713 1469.219238,346.376221 1462.037842,354.519562 
	C1454.035522,363.593719 1445.744507,372.488983 1438.547852,382.181366 
	C1425.234009,400.112122 1412.264282,418.324677 1399.836426,436.878784 
	C1389.622681,452.127472 1380.096313,467.862457 1370.822510,483.707947 
	C1360.855225,500.738403 1351.015625,517.882996 1342.056763,535.455200 
	C1327.799805,563.419006 1314.275513,591.757263 1300.553955,619.992004 
	C1298.368774,624.488220 1296.772339,629.270508 1294.361816,634.144287 
	C1294.311279,634.600891 1294.260620,635.057434 1294.210083,635.514038 
	C1294.689087,635.248352 1295.168213,634.982727 1296.190918,634.273499 
z"/>
<path fill="#164438" opacity="1.000000" stroke="none" 
	d="
M1294.903687,633.920532 
	C1296.772339,629.270508 1298.368774,624.488220 1300.553955,619.992004 
	C1314.275513,591.757263 1327.799805,563.419006 1342.056763,535.455200 
	C1351.015625,517.882996 1360.855225,500.738403 1370.822510,483.707947 
	C1380.096313,467.862457 1389.622681,452.127472 1399.836426,436.878784 
	C1412.264282,418.324677 1425.234009,400.112122 1438.547852,382.181366 
	C1445.744507,372.488983 1454.035522,363.593719 1462.037842,354.519562 
	C1469.219238,346.376221 1476.075562,337.799713 1484.147217,330.619415 
	C1499.886597,316.618317 1516.055542,303.047485 1532.695557,290.134888 
	C1540.430664,284.132355 1549.569214,280.131256 1559.438232,277.738525 
	C1575.298340,273.893341 1583.900635,284.095032 1584.976562,297.886810 
	C1586.418335,316.364960 1580.687134,333.242279 1573.054688,349.653198 
	C1563.351196,370.517090 1551.032349,389.770233 1536.653931,407.676117 
	C1522.962036,424.726959 1509.074097,441.625214 1495.005859,458.366669 
	C1488.217285,466.445312 1480.885376,474.073822 1473.673828,481.788696 
	C1466.453247,489.513397 1459.401001,497.437408 1451.705933,504.668701 
	C1430.062500,525.007874 1408.300903,545.229431 1386.232788,565.105469 
	C1374.925537,575.289612 1363.132202,584.984375 1351.075195,594.273010 
	C1336.480469,605.516846 1321.380493,616.105347 1306.485352,626.958313 
	C1303.083252,629.437134 1299.623901,631.837219 1295.735352,634.294128 
	C1295.154297,634.183411 1295.029053,634.052002 1294.903687,633.920532 
z"/>
<path fill="#164438" opacity="1.000000" stroke="none" 
	d="
M1295.463379,634.515869 
	C1295.168213,634.982727 1294.689087,635.248352 1294.210083,635.514038 
	C1294.260620,635.057434 1294.311279,634.600891 1294.632812,634.032410 
	C1295.029053,634.052002 1295.154297,634.183411 1295.463379,634.515869 
z"/>
</svg>